<svg width="173" height="205" viewBox="0 0 173 205" fill="none" xmlns="http://www.w3.org/2000/svg">
<path d="M46.4661 100.493V150.081C46.4661 150.647 46.9344 151.1 47.4994 151.081L88.5755 149.712C89.1146 149.694 89.5422 149.251 89.5422 148.712V103.231C89.5422 102.705 89.134 102.268 88.6087 102.233L47.5326 99.4949C46.9554 99.4565 46.4661 99.9142 46.4661 100.493Z" fill="white"/>
<path d="M88.4652 159.327L47.3883 162.53C46.8678 162.571 46.4662 163.016 46.4645 163.538C46.392 185.013 43.8925 192.321 51.3768 194.071C51.8528 194.182 52.2059 194.605 52.2326 195.093C52.9468 208.173 70.0508 206.876 70.8472 195.055C70.8803 194.563 71.236 194.136 71.7238 194.061L88.695 191.45C89.1828 191.375 89.5429 190.955 89.5429 190.462V160.324C89.5429 159.741 89.0463 159.281 88.4652 159.327Z" fill="white"/>
<path d="M138.362 146.711V106.254C138.362 105.669 138.862 105.209 139.445 105.258L171.906 107.963C172.424 108.006 172.823 108.439 172.823 108.959V145.834C172.823 146.376 172.391 146.819 171.85 146.834L139.389 147.711C138.826 147.726 138.362 147.274 138.362 146.711Z" fill="white"/>
<path d="M171.72 152.665L139.259 156.026C138.749 156.079 138.362 156.508 138.362 157.021V184.33C138.362 184.984 138.979 185.462 139.611 185.299L142.856 184.462C143.489 184.299 144.101 184.785 144.21 185.43C145.393 192.442 156.218 192.431 156.985 186.32C157.038 185.903 157.292 185.526 157.685 185.376C165.19 182.521 168.456 179.182 172.699 171.443C172.78 171.297 172.823 171.13 172.823 170.963V153.66C172.823 153.067 172.31 152.604 171.72 152.665Z" fill="white"/>
<path d="M172.824 76.5632C172.824 68.0841 143.617 62.271 126.267 59.3517C125.785 59.2706 125.441 58.855 125.441 58.3662V28.7402C125.441 28.188 124.994 27.7402 124.442 27.7402H120.695C120.143 27.7402 119.697 28.188 119.697 28.7402V57.0548C119.697 57.6656 119.154 58.1337 118.55 58.0439L71.7306 51.0883C71.2405 51.0155 70.8776 50.5947 70.8776 50.0992V20.125C70.8776 19.5727 70.4299 19.125 69.8776 19.125H66.1341C65.5818 19.125 65.1341 19.5727 65.1341 20.125V47.8012C65.1341 48.5087 64.417 48.9957 63.7367 48.8014C56.7379 46.8015 47.8712 49.8192 46.4813 57.9936C46.4722 58.0468 46.4678 58.1018 46.4678 58.1558V87.1345C46.4678 87.6527 46.8637 88.0851 47.3799 88.1306L94.3753 92.2773C94.8915 92.3228 95.2874 92.7552 95.2874 93.2734V190.152C95.2874 190.765 95.8337 191.233 96.4395 191.14L131.772 185.704C132.26 185.629 132.62 185.21 132.62 184.716V97.7475C132.62 97.1642 133.117 96.7047 133.699 96.7506L171.746 99.7571C172.327 99.8031 172.824 99.3436 172.824 98.7603V76.5632Z" fill="white"/>
<path d="M73.682 7.60127C72.583 8.87755 72.3838 13.7064 72.348 15.5633C72.3395 16.0011 72.0558 16.3868 71.6382 16.5185L65.0258 18.6039C64.3813 18.8071 63.725 18.3259 63.725 17.6502V10.5552C63.6966 6.0912 65.1324 1.78404 68.0042 0.346748C71.6004 -1.45314 117.855 3.89828 126.659 13.0493C126.827 13.2239 126.903 13.4465 126.903 13.6888V23.9186C126.903 24.4709 126.456 24.9165 125.903 24.9165H122.596H119.283C118.733 24.9165 118.286 24.4733 118.283 23.9229C118.275 22.1777 118.26 18.6458 118.26 17.5815C118.26 15.5432 78.5013 4.77933 73.8229 7.48374C73.7659 7.51669 73.725 7.55137 73.682 7.60127Z" fill="white"/>
<path d="M37.8736 191.948V57.4537C37.8736 56.9138 37.4332 56.4709 36.8936 56.4553C11.1593 55.7114 1.92449 58.6466 0.518555 70.8186V178.41C0.518555 178.476 0.525388 178.543 0.538526 178.608C3.17748 191.574 12.595 194.249 36.9193 192.946C37.4488 192.917 37.8736 192.478 37.8736 191.948Z" fill="white"/>
<path d="M5.26139 156.858H4.38965C3.83736 156.858 3.38965 157.306 3.38965 157.858V161.602C3.38965 162.154 3.83736 162.602 4.38965 162.602H5.26139C5.81368 162.602 6.26139 162.154 6.26139 161.602V157.858C6.26139 157.306 5.81368 156.858 5.26139 156.858Z" fill="white"/>
<path d="M17.6493 159.73H13.0049C12.4526 159.73 12.0049 160.178 12.0049 160.73V164.654C12.0049 165.131 12.3413 165.541 12.8088 165.634L26.2665 168.326C26.3311 168.339 26.3968 168.345 26.4626 168.345H31.1071C31.6594 168.345 32.1071 167.898 32.1071 167.345V163.422C32.1071 162.945 31.7706 162.535 31.3032 162.441L17.8455 159.75C17.7809 159.737 17.7152 159.73 17.6493 159.73Z" fill="white"/>
<path d="M5.26139 90.8086H4.38965C3.83736 90.8086 3.38965 90.3609 3.38965 89.8086V86.0651C3.38965 85.5128 3.83736 85.0651 4.38965 85.0651H5.26139C5.81368 85.0651 6.26139 85.5128 6.26139 86.0651V89.8086C6.26139 90.3609 5.81368 90.8086 5.26139 90.8086Z" fill="white"/>
<path d="M17.6493 87.9369H13.0049C12.4526 87.9369 12.0049 87.4891 12.0049 86.9369V83.0132C12.0049 82.5365 12.3413 82.1261 12.8088 82.0326L26.2665 79.341C26.3311 79.3281 26.3968 79.3216 26.4626 79.3216H31.1071C31.6594 79.3216 32.1071 79.7693 32.1071 80.3216V84.2453C32.1071 84.722 31.7706 85.1324 31.3032 85.2259L17.8455 87.9174C17.7809 87.9303 17.7152 87.9369 17.6493 87.9369Z" fill="white"/>
<path d="M6.26139 109.037V112.781C6.26139 113.333 5.81368 113.781 5.26139 113.781H4.38965C3.83736 113.781 3.38965 113.333 3.38965 112.781V109.037C3.38965 108.485 3.83736 108.037 4.38965 108.037H5.26139C5.81368 108.037 6.26139 108.485 6.26139 109.037Z" fill="white"/>
<path d="M31.1071 108.037H13.0049C12.4526 108.037 12.0049 108.485 12.0049 109.037V112.781C12.0049 113.333 12.4526 113.781 13.0049 113.781H31.1071C31.6594 113.781 32.1071 113.333 32.1071 112.781V109.037C32.1071 108.485 31.6594 108.037 31.1071 108.037Z" fill="white"/>
<path d="M6.26139 134.885V138.628C6.26139 139.181 5.81368 139.628 5.26139 139.628H4.38965C3.83736 139.628 3.38965 139.181 3.38965 138.628V134.885C3.38965 134.332 3.83736 133.885 4.38965 133.885H5.26139C5.81368 133.885 6.26139 134.332 6.26139 134.885Z" fill="white"/>
<path d="M31.1071 133.885H13.0049C12.4526 133.885 12.0049 134.332 12.0049 134.885V138.628C12.0049 139.181 12.4526 139.628 13.0049 139.628H31.1071C31.6594 139.628 32.1071 139.181 32.1071 138.628V134.885C32.1071 134.332 31.6594 133.885 31.1071 133.885Z" fill="white"/>
</svg>
