<svg width="38" height="38" viewBox="0 0 38 38" fill="none" xmlns="http://www.w3.org/2000/svg">
<path d="M31.4738 33.25C31.4738 34.1244 30.7904 34.8333 29.9474 34.8333C29.1044 34.8333 28.421 34.1244 28.421 33.25L28.421 23.75H23.8418C22.9988 23.75 22.3154 23.0411 22.3154 22.1667V12.6667C22.3154 8.29441 25.7324 4.75 29.9474 4.75C30.7904 4.75 31.4738 5.45888 31.4738 6.33333L31.4738 33.25Z" fill="black"/>
<path d="M10.1046 6.33333C10.1046 5.45888 9.42116 4.75 8.57815 4.75C7.73515 4.75 7.05176 5.45888 7.05176 6.33333V14.25C7.05176 17.2011 8.99757 19.6807 11.6309 20.3838V33.25C11.6309 34.1244 12.3143 34.8333 13.1573 34.8333C14.0003 34.8333 14.6837 34.1244 14.6837 33.25V20.3838C17.3171 19.6807 19.2629 17.2011 19.2629 14.25V6.33333C19.2629 5.45888 18.5795 4.75 17.7365 4.75C16.8935 4.75 16.2101 5.45888 16.2101 6.33333V12.6667H14.6837V6.33333C14.6837 5.45888 14.0003 4.75 13.1573 4.75C12.3143 4.75 11.6309 5.45888 11.6309 6.33333V12.6667H10.1046V6.33333Z" fill="black"/>
</svg>
