<svg width="42" height="42" viewBox="0 0 42 42" fill="none" xmlns="http://www.w3.org/2000/svg">
<path d="M34.1251 13.125L31.5176 15.7325L26.2676 10.4825L28.8751 7.87504C29.6101 7.14004 30.5551 6.79004 31.5001 6.79004C32.4451 6.79004 33.3901 7.14004 34.1251 7.87504C35.5776 9.32754 35.5776 11.6725 34.1251 13.125Z" fill="black"/>
<path d="M30.292 16.9746L11.3745 35.8746C9.92203 37.3271 7.57703 37.3271 6.12453 35.8746C4.67203 34.4221 4.67203 32.0771 6.12453 30.6246L25.042 11.7246L30.292 16.9746Z" fill="black"/>
<path d="M17.4124 6.12491L18.1299 3.69241C18.1999 3.46491 18.1299 3.21991 17.9724 3.04491C17.8149 2.86991 17.5349 2.79991 17.3074 2.86991L14.8749 3.58741L12.4424 2.86991C12.2149 2.79991 11.9699 2.86991 11.7949 3.02741C11.6199 3.20241 11.5674 3.44741 11.6374 3.67491L12.3374 6.12491L11.6199 8.55741C11.5499 8.78491 11.6199 9.02991 11.7774 9.20491C11.9524 9.37991 12.1974 9.43241 12.4249 9.36241L14.8749 8.66241L17.3074 9.37991C17.3774 9.39741 17.4299 9.41491 17.4999 9.41491C17.6749 9.41491 17.8324 9.34491 17.9724 9.22241C18.1474 9.04741 18.1999 8.80241 18.1299 8.57491L17.4124 6.12491Z" fill="black"/>
<path d="M10.4124 16.6249L11.1299 14.1924C11.1999 13.9649 11.1299 13.7199 10.9724 13.5449C10.7974 13.3699 10.5524 13.3174 10.3249 13.3874L7.87491 14.0874L5.44241 13.3699C5.21491 13.2999 4.96991 13.3699 4.79491 13.5274C4.61991 13.7024 4.56741 13.9474 4.63741 14.1749L5.33741 16.6249L4.61991 19.0574C4.54991 19.2849 4.61991 19.5299 4.77741 19.7049C4.95241 19.8799 5.19741 19.9324 5.42491 19.8624L7.85741 19.1449L10.2899 19.8624C10.3424 19.8799 10.4124 19.8799 10.4824 19.8799C10.6574 19.8799 10.8149 19.8099 10.9549 19.6874C11.1299 19.5124 11.1824 19.2674 11.1124 19.0399L10.4124 16.6249Z" fill="black"/>
<path d="M36.6625 25.3749L37.38 22.9424C37.45 22.7149 37.38 22.4699 37.2225 22.2949C37.0475 22.1199 36.8025 22.0674 36.575 22.1374L34.1425 22.8549L31.71 22.1374C31.4825 22.0674 31.2375 22.1374 31.0625 22.2949C30.8875 22.4699 30.835 22.7149 30.905 22.9424L31.6225 25.3749L30.905 27.8074C30.835 28.0349 30.905 28.2799 31.0625 28.4549C31.2375 28.6299 31.4825 28.6824 31.71 28.6124L34.1425 27.8949L36.575 28.6124C36.6275 28.6299 36.6975 28.6299 36.7675 28.6299C36.9425 28.6299 37.1 28.5599 37.24 28.4374C37.415 28.2624 37.4675 28.0174 37.3975 27.7899L36.6625 25.3749Z" fill="black"/>
</svg>
