<svg width="64" height="64" viewBox="0 0 64 64" fill="none" xmlns="http://www.w3.org/2000/svg">
<path d="M56 58.667H8C6.90667 58.667 6 57.7603 6 56.667C6 55.5737 6.90667 54.667 8 54.667H56C57.0933 54.667 58 55.5737 58 56.667C58 57.7603 57.0933 58.667 56 58.667Z" fill="white"/>
<path d="M50.7195 9.27977C45.5462 4.10643 40.4795 3.9731 35.1729 9.27977L31.9462 12.5064C31.6795 12.7731 31.5729 13.1998 31.6795 13.5731C33.7062 20.6398 39.3595 26.2931 46.4262 28.3198C46.5329 28.3464 46.6395 28.3731 46.7462 28.3731C47.0395 28.3731 47.3062 28.2664 47.5195 28.0531L50.7195 24.8264C53.3595 22.2131 54.6395 19.6798 54.6395 17.1198C54.6662 14.4798 53.3862 11.9198 50.7195 9.27977Z" fill="white"/>
<path d="M41.6262 30.7471C40.8529 30.3738 40.1062 30.0005 39.3862 29.5738C38.7995 29.2271 38.2395 28.8538 37.6795 28.4538C37.2262 28.1605 36.6929 27.7338 36.1862 27.3071C36.1329 27.2805 35.9462 27.1205 35.7329 26.9071C34.8529 26.1605 33.8662 25.2005 32.9862 24.1338C32.9062 24.0805 32.7729 23.8938 32.5862 23.6538C32.3195 23.3338 31.8662 22.8005 31.4662 22.1871C31.1462 21.7871 30.7729 21.2005 30.4262 20.6138C29.9995 19.8938 29.6262 19.1738 29.2529 18.4271C29.0029 17.8913 28.7887 17.3675 28.5944 16.8637C28.4633 16.5236 28.0258 16.4276 27.768 16.6853L11.5729 32.8805C11.2262 33.2271 10.9062 33.8938 10.8262 34.3471L9.38621 44.5605C9.11955 46.3738 9.62622 48.0805 10.7462 49.2271C11.7062 50.1605 13.0395 50.6671 14.4795 50.6671C14.7995 50.6671 15.1195 50.6405 15.4395 50.5871L25.6795 49.1471C26.1595 49.0671 26.8262 48.7471 27.1462 48.4005L43.3342 32.2125C43.5937 31.9529 43.4948 31.5106 43.1526 31.3778C42.6583 31.186 42.1601 30.9785 41.6262 30.7471Z" fill="white"/>
</svg>
