<svg width="32" height="61" viewBox="0 0 32 61" fill="none" xmlns="http://www.w3.org/2000/svg">
<path d="M30.7066 53.2947C31.4576 54.1662 31.8748 55.3128 31.8331 56.5053C31.8331 57.6977 31.4159 58.7985 30.6232 59.6699C29.8722 60.4955 28.8292 61 27.7445 61C26.6597 61 25.6167 60.5872 24.824 59.7617L1.20991 33.8023C0.83442 33.3895 0.542373 32.885 0.333768 32.3346C0.125163 31.7842 0 31.188 0 30.5917C0 29.9955 0.125163 29.3993 0.333768 28.803C0.542373 28.2526 0.83442 27.7481 1.20991 27.3353L24.824 1.37594C25.1995 0.963158 25.6584 0.596241 26.1591 0.366917C26.7014 0.137594 27.2438 0 27.7862 0C28.3286 0 28.9126 0.0917293 29.4133 0.321053C29.914 0.550376 30.3729 0.917293 30.7901 1.33008C31.1656 1.74286 31.4576 2.29323 31.6662 2.84361C31.9166 3.39399 32 3.99023 32 4.63233C32 5.22857 31.8748 5.82481 31.6662 6.37519C31.4576 6.92556 31.1239 7.43008 30.7066 7.88872L10.0548 30.5917L13.9765 34.8571L30.7066 53.2947Z" fill="white"/>
</svg>
