<svg width="50" height="50" viewBox="0 0 50 50" fill="none" xmlns="http://www.w3.org/2000/svg">
<path d="M41.667 43.75C41.667 44.9006 40.7343 45.8333 39.5837 45.8333C38.4331 45.8333 37.5003 44.9006 37.5003 43.75L37.5003 31.25H31.2503C30.0997 31.25 29.167 30.3173 29.167 29.1667V16.6667C29.167 10.9137 33.8307 6.25 39.5837 6.25C40.7343 6.25 41.667 7.18274 41.667 8.33333L41.667 43.75Z" fill="black"/>
<path d="M12.4997 8.33333C12.4997 7.18274 11.5669 6.25 10.4163 6.25C9.26575 6.25 8.33301 7.18274 8.33301 8.33333V18.75C8.33301 22.633 10.9888 25.8957 14.583 26.8208V43.75C14.583 44.9006 15.5157 45.8333 16.6663 45.8333C17.8169 45.8333 18.7497 44.9006 18.7497 43.75V26.8208C22.3439 25.8957 24.9997 22.633 24.9997 18.75V8.33333C24.9997 7.18274 24.0669 6.25 22.9163 6.25C21.7657 6.25 20.833 7.18274 20.833 8.33333V16.6667H18.7497V8.33333C18.7497 7.18274 17.8169 6.25 16.6663 6.25C15.5157 6.25 14.583 7.18274 14.583 8.33333V16.6667H12.4997V8.33333Z" fill="black"/>
</svg>
