<svg width="46" height="46" viewBox="0 0 46 46" fill="none" xmlns="http://www.w3.org/2000/svg">
<path d="M21.6971 5.75H9.75622C5.94206 5.75 4.02539 7.68583 4.02539 11.5383V42.1667H14.3754V34.9792C14.3754 34.1933 15.0271 33.5417 15.8129 33.5417C16.5987 33.5417 17.2504 34.1742 17.2504 34.9792V42.1667H27.4087V11.5383C27.4087 7.68583 25.5112 5.75 21.6971 5.75ZM20.6046 24.4375H11.1171C10.3312 24.4375 9.67956 23.7858 9.67956 23C9.67956 22.2142 10.3312 21.5625 11.1171 21.5625H20.6046C21.3904 21.5625 22.0421 22.2142 22.0421 23C22.0421 23.7858 21.3904 24.4375 20.6046 24.4375ZM20.6046 17.25H11.1171C10.3312 17.25 9.67956 16.5983 9.67956 15.8125C9.67956 15.0267 10.3312 14.375 11.1171 14.375H20.6046C21.3904 14.375 22.0421 15.0267 22.0421 15.8125C22.0421 16.5983 21.3904 17.25 20.6046 17.25Z" fill="black"/>
<path d="M44.0837 40.729H39.7328V34.979C41.5537 34.3848 42.8762 32.679 42.8762 30.6665V26.8332C42.8762 24.3223 40.8253 22.2715 38.3145 22.2715C35.8037 22.2715 33.7528 24.3223 33.7528 26.8332V30.6665C33.7528 32.6598 35.0562 34.3465 36.8387 34.9598V40.729H1.91699C1.13116 40.729 0.479492 41.3807 0.479492 42.1665C0.479492 42.9523 1.13116 43.604 1.91699 43.604H38.1995C38.2378 43.604 38.257 43.6232 38.2953 43.6232C38.3337 43.6232 38.3528 43.604 38.3912 43.604H44.0837C44.8695 43.604 45.5212 42.9523 45.5212 42.1665C45.5212 41.3807 44.8695 40.729 44.0837 40.729Z" fill="black"/>
</svg>
