<svg width="47" height="47" viewBox="0 0 47 47" fill="none" xmlns="http://www.w3.org/2000/svg">
<path d="M17.3901 9.00817C15.8235 2.23233 5.62055 2.21275 4.05388 9.00817C3.13346 12.9836 5.65971 16.3519 7.85305 18.4473C9.45888 19.9552 11.9851 19.9552 13.591 18.4473C15.7843 16.3519 18.291 12.9836 17.3901 9.00817ZM10.7905 12.1415C9.71346 12.1415 8.83221 11.2602 8.83221 10.1832C8.83221 9.10608 9.69388 8.22483 10.771 8.22483H10.7905C11.8872 8.22483 12.7489 9.10608 12.7489 10.1832C12.7489 11.2602 11.8872 12.1415 10.7905 12.1415Z" fill="black"/>
<path d="M42.9068 32.5082C41.3402 25.7323 31.0981 25.7127 29.5118 32.5082C28.5914 36.4836 31.1177 39.8519 33.3306 41.9473C34.9364 43.4552 37.4822 43.4552 39.0881 41.9473C41.301 39.8519 43.8272 36.4836 42.9068 32.5082ZM36.2877 35.6415C35.2106 35.6415 34.3293 34.7603 34.3293 33.6832C34.3293 32.6061 35.191 31.7248 36.2681 31.7248H36.2877C37.3647 31.7248 38.246 32.6061 38.246 33.6832C38.246 34.7603 37.3647 35.6415 36.2877 35.6415Z" fill="black"/>
<path d="M23.5001 38.6774H18.2518C15.9801 38.6774 14.0022 37.3066 13.2189 35.1916C12.416 33.0766 13.0035 30.7462 14.7072 29.2382L30.3543 15.5495C31.2943 14.727 31.3139 13.6107 31.0397 12.847C30.746 12.0832 30.0018 11.2607 28.7485 11.2607H23.5001C22.6972 11.2607 22.0314 10.5949 22.0314 9.79199C22.0314 8.98908 22.6972 8.32324 23.5001 8.32324H28.7485C31.0201 8.32324 32.9981 9.69408 33.7814 11.8091C34.5843 13.9241 33.9968 16.2545 32.2931 17.7624L16.646 31.4512C15.706 32.2737 15.6864 33.3899 15.9606 34.1537C16.2543 34.9174 16.9985 35.7399 18.2518 35.7399H23.5001C24.3031 35.7399 24.9689 36.4057 24.9689 37.2087C24.9689 38.0116 24.3031 38.6774 23.5001 38.6774Z" fill="black"/>
</svg>
