<svg width="53" height="53" viewBox="0 0 53 53" fill="none" xmlns="http://www.w3.org/2000/svg">
<path d="M44.0784 19.7863C42.5988 18.1521 40.3684 17.2026 37.2768 16.8713V15.193C37.2768 12.1676 35.9959 9.25255 33.7434 7.22089C31.4688 5.14505 28.5097 4.17339 25.4401 4.46047C20.1622 4.96839 15.7234 10.0696 15.7234 15.5905V16.8713C12.6318 17.2026 10.4013 18.1521 8.92176 19.7863C6.77967 22.1713 6.84592 25.3513 7.08884 27.5596L8.63467 39.8601C9.09842 44.1663 10.843 48.583 20.3388 48.583H32.6613C42.1572 48.583 43.9018 44.1663 44.3655 39.8821L45.9113 27.5376C46.1543 25.3513 46.1984 22.1713 44.0784 19.7863ZM25.7493 7.53005C27.9576 7.3313 30.0555 8.01589 31.6897 9.49547C33.3018 10.953 34.2072 13.0288 34.2072 15.193V16.7388H18.793V15.5905C18.793 11.6596 22.0393 7.88339 25.7493 7.53005ZM18.5943 29.0392H18.5722C17.3576 29.0392 16.3638 28.0455 16.3638 26.8309C16.3638 25.6163 17.3576 24.6226 18.5722 24.6226C19.8088 24.6226 20.8026 25.6163 20.8026 26.8309C20.8026 28.0455 19.8088 29.0392 18.5943 29.0392ZM34.0526 29.0392H34.0305C32.8159 29.0392 31.8222 28.0455 31.8222 26.8309C31.8222 25.6163 32.8159 24.6226 34.0305 24.6226C35.2672 24.6226 36.2609 25.6163 36.2609 26.8309C36.2609 28.0455 35.2672 29.0392 34.0526 29.0392Z" fill="black"/>
</svg>
