<svg width="119" height="119" viewBox="0 0 119 119" fill="none" xmlns="http://www.w3.org/2000/svg">
<path d="M12.7925 94.2579L12.6933 94.3571C11.3546 91.4317 10.5116 88.1096 10.1646 84.4404C10.5116 88.06 11.4537 91.3325 12.7925 94.2579Z" fill="#3485FF"/>
<path d="M44.6251 51.4679C51.1425 51.4679 56.4259 46.1845 56.4259 39.667C56.4259 33.1496 51.1425 27.8662 44.6251 27.8662C38.1076 27.8662 32.8242 33.1496 32.8242 39.667C32.8242 46.1845 38.1076 51.4679 44.6251 51.4679Z" fill="#3485FF"/>
<path d="M80.2753 9.91699H38.7244C20.6761 9.91699 9.9165 20.6766 9.9165 38.7249V80.2757C9.9165 85.6803 10.8586 90.3907 12.6932 94.3574C16.9573 103.778 26.0807 109.084 38.7244 109.084H80.2753C98.3236 109.084 109.083 98.3241 109.083 80.2757V68.9212V38.7249C109.083 20.6766 98.3236 9.91699 80.2753 9.91699ZM101.001 61.9795C97.1336 58.6574 90.8861 58.6574 87.0186 61.9795L66.3919 79.6807C62.5244 83.0028 56.2769 83.0028 52.4094 79.6807L50.7236 78.2924C47.2032 75.2182 41.6003 74.9207 37.6336 77.5982L19.0894 90.0437C17.9986 87.267 17.354 84.0441 17.354 80.2757V38.7249C17.354 24.7424 24.7419 17.3545 38.7244 17.3545H80.2753C94.2578 17.3545 101.646 24.7424 101.646 38.7249V62.5249L101.001 61.9795Z" fill="#3485FF"/>
</svg>
