<svg width="23" height="23" viewBox="0 0 23 23" fill="none" xmlns="http://www.w3.org/2000/svg">
<path fill-rule="evenodd" clip-rule="evenodd" d="M8.05 0C6.14462 0 4.6 1.54462 4.6 3.45V4.6H3.45C1.54462 4.6 0 6.14462 0 8.05V19.55C0 21.4554 1.54462 23 3.45 23H14.95C16.8554 23 18.4 21.4554 18.4 19.55V18.4H19.55C21.4554 18.4 23 16.8554 23 14.95V3.45C23 1.54462 21.4554 0 19.55 0H8.05ZM16.1 18.4H8.0501C6.14472 18.4 4.6 16.8554 4.6 14.95V6.9H3.45C2.81487 6.9 2.3 7.41487 2.3 8.05V19.55C2.3 20.1851 2.81487 20.7 3.45 20.7H14.95C15.5851 20.7 16.1 20.1851 16.1 19.55V18.4ZM17.825 6.9C18.7777 6.9 19.55 6.12769 19.55 5.175C19.55 4.22231 18.7777 3.45 17.825 3.45C16.8723 3.45 16.1 4.22231 16.1 5.175C16.1 6.12769 16.8723 6.9 17.825 6.9ZM20.1032 15.9585C20.347 15.8245 20.3306 15.5002 20.1427 15.2949C18.9559 13.9974 14.7817 9.43455 12.5725 7.02448C11.3964 5.74141 9.35885 5.78951 8.24457 7.12665L7.16664 8.42016C6.99442 8.62683 6.9001 8.88735 6.9001 9.15637V14.95C6.9001 15.5851 7.41497 16.1 8.0501 16.1H19.5501C19.7506 16.1 19.9391 16.0487 20.1032 15.9585Z" fill="white"/>
</svg>
