<svg width="17" height="20" viewBox="0 0 17 20" fill="none" xmlns="http://www.w3.org/2000/svg">
<path d="M12.28 0H4.72C0.94 0 0 1.01 0 5.04V16.3C0 18.96 1.46 19.59 3.23 17.69L3.24 17.68C4.06 16.81 5.31 16.88 6.02 17.83L7.03 19.18C7.84 20.25 9.15 20.25 9.96 19.18L10.97 17.83C11.69 16.87 12.94 16.8 13.76 17.68C15.54 19.58 16.99 18.95 16.99 16.29V5.04C17 1.01 16.06 0 12.28 0ZM4.28 10C3.73 10 3.28 9.55 3.28 9C3.28 8.45 3.73 8 4.28 8C4.83 8 5.28 8.45 5.28 9C5.28 9.55 4.83 10 4.28 10ZM4.28 6C3.73 6 3.28 5.55 3.28 5C3.28 4.45 3.73 4 4.28 4C4.83 4 5.28 4.45 5.28 5C5.28 5.55 4.83 6 4.28 6ZM12.73 9.75H7.23C6.82 9.75 6.48 9.41 6.48 9C6.48 8.59 6.82 8.25 7.23 8.25H12.73C13.14 8.25 13.48 8.59 13.48 9C13.48 9.41 13.14 9.75 12.73 9.75ZM12.73 5.75H7.23C6.82 5.75 6.48 5.41 6.48 5C6.48 4.59 6.82 4.25 7.23 4.25H12.73C13.14 4.25 13.48 4.59 13.48 5C13.48 5.41 13.14 5.75 12.73 5.75Z" fill="white"/>
</svg>
