<svg width="19" height="21" viewBox="0 0 19 21" fill="none" xmlns="http://www.w3.org/2000/svg">
<path fill-rule="evenodd" clip-rule="evenodd" d="M14.1559 0.807048L14.157 1.59415C17.0647 1.82084 18.9854 3.79175 18.9885 6.81424L19 15.6613C19.0042 18.9567 16.9229 20.9842 13.5869 20.9895L5.4381 21C2.12293 21.0042 0.0156397 18.9283 0.011471 15.6235L7.01918e-06 6.88036C-0.0041617 3.83793 1.84883 1.87226 4.75651 1.60675L4.75547 0.819642C4.75443 0.357873 5.09835 0.0104971 5.55691 0.0104971C6.01547 0.00944765 6.35939 0.355774 6.36043 0.817543L6.36147 1.55218L12.552 1.54378L12.551 0.809147C12.5499 0.347378 12.8939 0.00105185 13.3524 2.37876e-06C13.8005 -0.0010471 14.1549 0.345279 14.1559 0.807048ZM1.60553 7.20493L17.3841 7.18394V6.81662C17.3393 4.56025 16.2013 3.37644 14.1586 3.20013L14.1596 4.00823C14.1596 4.4595 13.8063 4.81737 13.3582 4.81737C12.8996 4.81842 12.5547 4.4616 12.5547 4.01033L12.5536 3.16025L6.36308 3.16865L6.36413 4.01767C6.36413 4.47 6.02125 4.82682 5.56269 4.82682C5.10413 4.82787 4.75917 4.4721 4.75917 4.01977L4.75813 3.21168C2.72588 3.41422 1.60137 4.60223 1.60449 6.87854L1.60553 7.20493ZM12.9199 11.9743V11.9859C12.9303 12.4686 13.3264 12.8349 13.8068 12.8244C14.2758 12.8129 14.6499 12.413 14.6395 11.9303C14.6176 11.4685 14.2414 11.0917 13.7735 11.0928C13.2941 11.1033 12.9189 11.4916 12.9199 11.9743ZM13.7814 16.6862C13.302 16.6757 12.9153 16.278 12.9143 15.7952C12.9038 15.3125 13.2884 14.9126 13.7678 14.9011H13.7782C14.2681 14.9011 14.6651 15.2988 14.6651 15.7921C14.6662 16.2853 14.2701 16.6852 13.7814 16.6862ZM8.625 11.9923C8.64584 12.475 9.04291 12.8518 9.52231 12.8308C9.99129 12.8088 10.3654 12.41 10.3446 11.9272C10.3331 11.4549 9.94752 11.0876 9.47854 11.0887C8.99914 11.1097 8.62395 11.5095 8.625 11.9923ZM9.52719 16.6391C9.04779 16.6601 8.65176 16.2833 8.62988 15.8006C8.62988 15.3178 9.00402 14.919 9.48342 14.897C9.9524 14.8959 10.3391 15.2632 10.3495 15.7345C10.3714 16.2183 9.99617 16.6171 9.52719 16.6391ZM4.33203 12.0271C4.35287 12.5099 4.74994 12.8877 5.22934 12.8657C5.69832 12.8447 6.07247 12.4448 6.05058 11.9621C6.04016 11.4898 5.65455 11.1225 5.18453 11.1235C4.70513 11.1445 4.33098 11.5444 4.33203 12.0271ZM5.23423 16.6452C4.75482 16.6672 4.3588 16.2894 4.33691 15.8066C4.33587 15.3239 4.71105 14.924 5.19045 14.903C5.65944 14.902 6.04608 15.2693 6.05651 15.7416C6.07839 16.2243 5.70425 16.6242 5.23423 16.6452Z" fill="white"/>
</svg>
