<svg width="19" height="19" viewBox="0 0 19 19" fill="none" xmlns="http://www.w3.org/2000/svg">
<path fill-rule="evenodd" clip-rule="evenodd" d="M5.89061 1.62991L5.13864 3.2439H2.85C1.47274 3.2439 0.323654 4.197 0.0579019 5.46403C0.0199373 5.64503 0 5.83244 0 6.02439V7.41463C0 8.69432 1.06332 9.73171 2.375 9.73171H5.86217C6.25342 8.65177 7.30909 7.87805 8.55 7.87805H10.45C11.6909 7.87805 12.7466 8.65177 13.1378 9.73171H16.625C17.9367 9.73171 19 8.69432 19 7.41463V6.02439C19 4.48877 17.724 3.2439 16.15 3.2439H13.8614L13.1094 1.62991C12.6469 0.637295 11.6325 0 10.5148 0H8.48515C7.36754 0 6.35308 0.637296 5.89061 1.62991ZM10.5148 1.85366H8.48515C8.11262 1.85366 7.77446 2.06609 7.6203 2.39696L7.22571 3.2439H11.7743L11.3797 2.39696C11.2255 2.06609 10.8874 1.85366 10.5148 1.85366Z" fill="white"/>
<path d="M5.86217 11.5854H2.375C1.66233 11.5854 0.990384 11.4152 0.399517 11.1143C0.222544 11.0242 0 11.1463 0 11.3449V16.2195C0 17.7551 1.27599 19 2.85 19H16.15C17.724 19 19 17.7551 19 16.2195V11.3449C19 11.1463 18.7775 11.0242 18.6005 11.1143C18.0096 11.4152 17.3377 11.5854 16.625 11.5854H13.1378C12.7466 12.6653 11.6909 13.439 10.45 13.439H8.55C7.30909 13.439 6.25342 12.6653 5.86217 11.5854Z" fill="white"/>
<path d="M8.55 9.73171C8.02533 9.73171 7.6 10.1467 7.6 10.6585C7.6 11.1704 8.02533 11.5854 8.55 11.5854H10.45C10.9747 11.5854 11.4 11.1704 11.4 10.6585C11.4 10.1467 10.9747 9.73171 10.45 9.73171H8.55Z" fill="white"/>
</svg>
