<svg width="18" height="5" viewBox="0 0 18 5" fill="none" xmlns="http://www.w3.org/2000/svg">
<path d="M2.04439 4.1875C1.52734 4.1875 1.08416 4.00568 0.714844 3.64205C0.345526 3.27841 0.163707 2.83523 0.169389 2.3125C0.163707 1.80114 0.345526 1.36364 0.714844 1C1.08416 0.636364 1.52734 0.454545 2.04439 0.454545C2.54439 0.454545 2.97905 0.636364 3.34837 1C3.72337 1.36364 3.91371 1.80114 3.91939 2.3125C3.91371 2.65909 3.8228 2.97443 3.64666 3.25852C3.47621 3.54261 3.24893 3.76989 2.96484 3.94034C2.68643 4.10511 2.37962 4.1875 2.04439 4.1875ZM9.00533 4.1875C8.48828 4.1875 8.0451 4.00568 7.67578 3.64205C7.30646 3.27841 7.12464 2.83523 7.13033 2.3125C7.12464 1.80114 7.30646 1.36364 7.67578 1C8.0451 0.636364 8.48828 0.454545 9.00533 0.454545C9.50533 0.454545 9.93999 0.636364 10.3093 1C10.6843 1.36364 10.8746 1.80114 10.8803 2.3125C10.8746 2.65909 10.7837 2.97443 10.6076 3.25852C10.4371 3.54261 10.2099 3.76989 9.92578 3.94034C9.64737 4.10511 9.34055 4.1875 9.00533 4.1875ZM15.9663 4.1875C15.4492 4.1875 15.006 4.00568 14.6367 3.64205C14.2674 3.27841 14.0856 2.83523 14.0913 2.3125C14.0856 1.80114 14.2674 1.36364 14.6367 1C15.006 0.636364 15.4492 0.454545 15.9663 0.454545C16.4663 0.454545 16.9009 0.636364 17.2702 1C17.6452 1.36364 17.8356 1.80114 17.8413 2.3125C17.8356 2.65909 17.7447 2.97443 17.5685 3.25852C17.3981 3.54261 17.1708 3.76989 16.8867 3.94034C16.6083 4.10511 16.3015 4.1875 15.9663 4.1875Z" fill="#9C9C9C"/>
</svg>
