<svg width="40" height="21" viewBox="0 0 40 21" fill="none" xmlns="http://www.w3.org/2000/svg">
<path d="M5.05263 20.1512C4.4812 20.6441 3.72932 20.9179 2.94737 20.8905C2.16542 20.8905 1.44361 20.6167 0.872181 20.0965C0.330826 19.6037 0 18.9192 0 18.2073C0 17.4954 0.270679 16.811 0.812031 16.2907L17.8346 0.794003C18.1053 0.547588 18.4361 0.355932 18.797 0.219035C19.1579 0.0821382 19.5489 0 19.9398 0C20.3308 0 20.7218 0.0821382 21.1128 0.219035C21.4737 0.355932 21.8045 0.547588 22.0752 0.794003L39.0977 16.2907C39.3684 16.5372 39.609 16.8383 39.7594 17.1669C39.9098 17.5228 40 17.8787 40 18.2347C40 18.5906 39.9398 18.9739 39.7895 19.3025C39.6391 19.631 39.3985 19.9322 39.1278 20.206C38.8571 20.4524 38.4962 20.6441 38.1353 20.781C37.7744 20.9452 37.3835 21 36.9624 21C36.5714 21 36.1805 20.9179 35.8195 20.781C35.4586 20.6441 35.1278 20.425 34.8271 20.1512L19.9398 6.59844L17.1429 9.1721L5.05263 20.1512Z" fill="#9C9C9C"/>
</svg>
