<svg width="39" height="42" viewBox="0 0 39 42" fill="none" xmlns="http://www.w3.org/2000/svg">
<path d="M36.2143 24H22.2857V39C22.2857 39.7956 21.9922 40.5587 21.4698 41.1213C20.9474 41.6839 20.2388 42 19.5 42C18.7612 42 18.0526 41.6839 17.5302 41.1213C17.0078 40.5587 16.7143 39.7956 16.7143 39V24H2.78571C2.0469 24 1.33834 23.6839 0.815917 23.1213C0.293495 22.5587 0 21.7957 0 21C0 20.2044 0.293495 19.4413 0.815917 18.8787C1.33834 18.3161 2.0469 18 2.78571 18H16.7143V3C16.7143 2.20435 17.0078 1.44129 17.5302 0.878679C18.0526 0.31607 18.7612 0 19.5 0C20.2388 0 20.9474 0.31607 21.4698 0.878679C21.9922 1.44129 22.2857 2.20435 22.2857 3V18H36.2143C36.9531 18 37.6617 18.3161 38.1841 18.8787C38.7065 19.4413 39 20.2044 39 21C39 21.7957 38.7065 22.5587 38.1841 23.1213C37.6617 23.6839 36.9531 24 36.2143 24Z" fill="white"/>
</svg>
